<?xml version="1.0" standalone="no"?>
<!DOCTYPE svg PUBLIC "-//W3C//DTD SVG 20010904//EN"
 "http://www.w3.org/TR/2001/REC-SVG-20010904/DTD/svg10.dtd">
<svg version="1.0" xmlns="http://www.w3.org/2000/svg"
 width="300.000000pt" height="284.000000pt" viewBox="0 0 300.000000 284.000000"
 preserveAspectRatio="xMidYMid meet">
<metadata>
Created by potrace 1.10, written by Peter Selinger 2001-2011
</metadata>
<g transform="translate(0.000000,284.000000) scale(0.100000,-0.100000)"
fill="#000000" stroke="none">
<path d="M1376 2769 c-319 -28 -604 -165 -829 -398 -109 -114 -183 -218 -242
-344 -94 -198 -129 -356 -128 -577 1 -343 123 -651 357 -897 167 -177 400
-315 631 -374 160 -41 377 -51 536 -24 550 91 967 494 1086 1048 14 62 18 127
18 262 -1 161 -4 191 -27 285 -75 298 -218 531 -439 715 -272 226 -617 335
-963 304z m354 -169 c520 -107 905 -558 927 -1085 9 -217 -28 -398 -119 -579
-64 -127 -128 -216 -128 -177 0 5 -27 50 -60 99 -105 157 -288 309 -454 376
-31 13 -56 27 -54 32 1 5 24 26 50 47 101 79 183 211 214 343 23 101 15 256
-19 352 -142 403 -635 551 -977 293 -151 -113 -250 -312 -250 -501 0 -185 98
-384 243 -496 26 -21 44 -40 40 -44 -4 -3 -28 -15 -53 -25 -192 -79 -382 -244
-486 -422 l-38 -66 -28 34 c-38 45 -124 214 -154 301 -138 408 -37 865 262
1178 158 165 343 274 563 330 167 42 346 46 521 10z m-115 -334 c183 -49 325
-209 355 -398 31 -202 -84 -414 -275 -505 -68 -32 -88 -37 -174 -41 -73 -3
-112 0 -157 13 -148 42 -264 148 -325 296 -32 77 -33 248 -2 331 53 142 169
253 311 299 69 22 196 24 267 5z m87 -1125 c163 -42 280 -106 401 -221 77 -72
141 -157 182 -241 l28 -56 -43 -39 c-383 -350 -990 -393 -1425 -101 -33 22
-86 63 -118 90 l-57 49 41 77 c131 243 379 418 649 460 90 14 250 5 342 -18z"/>
</g>
</svg>
